<svg width="18" height="13" viewBox="0 0 18 13" fill="none" xmlns="http://www.w3.org/2000/svg">
<path d="M1.5013 10.9358V12C1.5013 12.221 1.5891 12.433 1.74538 12.5893C1.90166 12.7455 2.11362 12.8333 2.33464 12.8333H3.16797C3.38898 12.8333 3.60094 12.7455 3.75722 12.5893C3.9135 12.433 4.0013 12.221 4.0013 12V11.1667H14.0013V12C14.0013 12.221 14.0891 12.433 14.2454 12.5893C14.4017 12.7455 14.6136 12.8333 14.8346 12.8333H15.668C15.889 12.8333 16.1009 12.7455 16.2572 12.5893C16.4135 12.433 16.5013 12.221 16.5013 12V10.9358C16.7541 10.7909 16.9643 10.5818 17.1106 10.3297C17.2569 10.0776 17.3342 9.79146 17.3346 9.50001V7.00001C17.3346 6.30751 16.9121 5.71501 16.3113 5.46251L15.1713 2.04251C15.0059 1.54458 14.6878 1.11143 14.2622 0.8046C13.8366 0.497774 13.3251 0.332878 12.8005 0.333344H5.20214C4.67746 0.332878 4.16598 0.497774 3.74037 0.8046C3.31476 1.11143 2.99668 1.54458 2.8313 2.04251L1.6913 5.46251C1.38822 5.58945 1.1294 5.8031 0.947331 6.07664C0.765266 6.35018 0.668078 6.67142 0.667969 7.00001V9.50001C0.667969 10.115 1.00464 10.6467 1.5013 10.9358ZM3.58464 9.50001C3.42043 9.49996 3.25784 9.46756 3.10615 9.40467C2.95447 9.34178 2.81665 9.24963 2.70058 9.13348C2.46616 8.8989 2.33452 8.58081 2.33464 8.24918C2.33475 7.91755 2.46659 7.59954 2.70117 7.36512C2.93575 7.1307 3.25384 6.99907 3.58547 6.99918C3.9171 6.99929 4.2351 7.13113 4.46952 7.36571C4.70395 7.60029 4.83558 7.91838 4.83547 8.25001C4.83536 8.58164 4.70351 8.89965 4.46894 9.13407C4.23436 9.36849 3.91627 9.50012 3.58464 9.50001ZM14.418 9.50001C14.0863 9.4999 13.7683 9.36805 13.5339 9.13348C13.2995 8.8989 13.1679 8.58081 13.168 8.24918C13.1681 7.91755 13.2999 7.59954 13.5345 7.36512C13.7691 7.1307 14.0872 6.99907 14.4188 6.99918C14.7504 6.99929 15.0684 7.13113 15.3029 7.36571C15.5373 7.60029 15.6689 7.91838 15.6688 8.25001C15.6687 8.58164 15.5368 8.89965 15.3023 9.13407C15.0677 9.36849 14.7496 9.50012 14.418 9.50001ZM5.20214 2.00001H12.7996C12.9746 1.99997 13.1452 2.055 13.2871 2.15731C13.429 2.25962 13.5352 2.40401 13.5905 2.57001L14.5121 5.33334H3.49047L4.4113 2.57001C4.52547 2.22918 4.8438 2.00001 5.20214 2.00001Z" fill="#C1C1C4"/>
</svg>
