<svg width="80" height="80" viewBox="0 0 80 80" fill="none" xmlns="http://www.w3.org/2000/svg">
<path fill-rule="evenodd" clip-rule="evenodd" d="M38.8088 31.7792C45.9951 25.8145 49.5728 20.6165 50.7637 17.376C52.4146 12.9192 50.2526 14.6212 48.2388 17.2074C44.8604 21.8074 39.4886 30.7263 38.8088 31.7792ZM64.5331 26.668L63.6744 27.5216C63.7875 27.5244 63.9 27.5042 64.0051 27.4624C64.1102 27.4205 64.2057 27.3579 64.2859 27.2781C64.3661 27.1984 64.4294 27.1032 64.4719 26.9984C64.5144 26.8935 64.5352 26.7812 64.5331 26.668ZM61.7271 27.3632C61.7593 27.1822 61.7814 26.9997 61.7935 26.8163C61.8299 26.3072 61.9208 25.8034 62.0644 25.3136C62.0881 25.2696 62.1005 25.2205 62.1005 25.1705C62.1005 25.1205 62.0881 25.0714 62.0644 25.0274C61.8906 24.7309 61.8497 24.7156 61.5533 24.9149C61.4685 24.971 61.3776 25.0172 61.2824 25.0529C61.2029 25.0702 61.1334 25.1177 61.0885 25.1855C61.0436 25.2533 61.027 25.336 61.0422 25.4158C61.0473 25.5289 61.0679 25.6406 61.1035 25.748C61.2875 26.2898 61.4766 26.8265 61.6657 27.3632H61.7271ZM62.5448 27.6852L62.6113 27.6034C63.1018 27.1164 63.5514 26.5899 63.9555 26.0292C63.9841 25.9814 64.0097 25.9319 64.0322 25.8809C64.0513 25.8368 64.0523 25.787 64.0351 25.7421C64.0179 25.6972 63.9838 25.6608 63.9402 25.6407C63.9214 25.6298 63.9007 25.6227 63.8792 25.6199C63.8577 25.6171 63.8358 25.6186 63.8149 25.6243C63.794 25.63 63.7744 25.6398 63.7573 25.6532C63.7402 25.6665 63.7259 25.6831 63.7153 25.702L63.608 25.8656C63.3245 26.1976 63.0225 26.5133 62.7033 26.8112C62.8484 26.4529 62.9513 26.079 63.0099 25.6969C62.9959 25.6647 62.9749 25.6361 62.9484 25.6131C62.9218 25.5901 62.8905 25.5733 62.8566 25.564C62.8213 25.5692 62.7877 25.5825 62.7584 25.6029C62.7291 25.6233 62.705 25.6503 62.688 25.6816C62.5908 25.8656 62.3864 26.5914 62.2075 26.9594C62.2075 26.9236 62.1666 26.9083 62.1666 26.8929C62.1858 26.3366 62.2909 25.7866 62.4784 25.2625C62.5242 25.1302 62.5934 25.0073 62.6828 24.8996C62.7182 24.8357 62.77 24.7824 62.8329 24.7453C62.8959 24.7082 62.9676 24.6887 63.0406 24.6887C63.1137 24.6887 63.1854 24.7082 63.2483 24.7453C63.3112 24.7824 63.363 24.8357 63.3984 24.8996C63.6022 25.1489 63.8794 25.3278 64.1906 25.4107C64.2411 25.4171 64.2895 25.4351 64.332 25.4632C64.3744 25.4913 64.4099 25.5287 64.4356 25.5727C64.4612 25.6166 64.4765 25.6659 64.4801 25.7167C64.4837 25.7675 64.4756 25.8184 64.4564 25.8656C64.4086 26.0378 64.3345 26.2016 64.2366 26.3512C63.8145 26.9531 63.2243 27.4171 62.5397 27.6852H62.5448ZM53.1148 27.4398C52.7571 28.8045 54.0859 29.4178 54.7248 28.0225C55.2002 26.9645 53.5033 26.1007 53.1148 27.4398ZM34.3877 35.5563C30.2222 38.2345 25.6222 40.2687 20.5417 39.4049C19.1849 39.1624 17.8934 38.6402 16.7493 37.8716C16.7169 37.8519 16.6861 37.8297 16.6573 37.8052C16.0616 37.4528 15.4334 37.1584 14.7815 36.926C14.6026 36.8647 14.4237 36.8136 14.2397 36.7625C14.0449 36.6976 13.8325 36.7104 13.6468 36.7983C13.3896 36.9214 13.1032 36.9704 12.8197 36.9397C12.5362 36.909 12.2668 36.7998 12.042 36.6245C11.7229 36.3811 11.4223 36.1146 11.1424 35.8272C10.8204 35.5154 10.524 35.178 10.2173 34.8509C10.1491 34.7721 10.0892 34.6864 10.0384 34.5954C10.0144 34.5592 10.0006 34.5173 9.99857 34.474C9.99649 34.4306 10.0062 34.3876 10.0266 34.3493C10.0471 34.311 10.0775 34.279 10.1147 34.2567C10.1518 34.2343 10.1944 34.2224 10.2377 34.2223H10.3399C11.029 34.2492 11.7137 34.3433 12.3844 34.5034C12.7518 34.6019 13.0909 34.7856 13.3742 35.0395C13.6575 35.2935 13.8769 35.6106 14.0148 35.9652C14.0148 36.0316 14.066 36.098 14.1068 36.1952L15.5431 36.6245C15.6146 36.5478 15.5431 36.4865 15.5431 36.4354C15.1816 35.8267 14.9843 35.1345 14.9706 34.4267C14.9618 34.098 14.855 33.7794 14.664 33.5118C14.3678 33.0641 13.9835 32.6815 13.5344 32.3874C13.0893 32.0614 12.5984 31.803 12.0777 31.6207C11.9117 31.5661 11.7326 31.5661 11.5666 31.6207C11.4401 31.6617 11.306 31.6741 11.1741 31.657C11.0421 31.6399 10.9156 31.5937 10.8037 31.5219C10.6917 31.45 10.5971 31.3542 10.5267 31.2414C10.4562 31.1286 10.4116 31.0015 10.3962 30.8694C10.3731 30.7512 10.3804 30.6292 10.4175 30.5146C10.4545 30.4001 10.5201 30.2969 10.608 30.2146C10.6958 30.1323 10.8032 30.0738 10.9199 30.0444C11.0366 30.0149 11.1589 30.0157 11.2753 30.0465C11.4803 30.0817 11.6683 30.1824 11.8111 30.3335C11.954 30.4847 12.044 30.6781 12.0675 30.8847C12.0675 30.9512 12.0675 31.0227 12.0675 31.1096C13.0971 31.4875 14.0246 32.1 14.7764 32.8985C14.7961 32.3331 14.7219 31.7683 14.5566 31.2272C14.413 30.9488 14.1811 30.7259 13.8973 30.5934C13.6809 30.4894 13.4783 30.3589 13.2942 30.2049C12.989 29.9601 12.7441 29.6484 12.5784 29.2939C12.4127 28.9395 12.3306 28.5517 12.3384 28.1605C12.3479 27.6477 12.3854 27.1358 12.4508 26.6272C12.5071 26.116 12.5888 25.6458 12.6604 25.1603C12.6673 25.0922 12.6827 25.0252 12.7064 24.9609C12.7228 24.9171 12.7499 24.8781 12.7852 24.8474C12.8206 24.8166 12.863 24.7952 12.9087 24.7851C12.9544 24.7749 13.0019 24.7764 13.0469 24.7892C13.0919 24.8021 13.133 24.826 13.1664 24.8587C13.2894 24.9791 13.4006 25.1108 13.4986 25.2523C14.1202 26.125 14.6141 27.0819 14.9655 28.094C15.2017 28.7721 15.2511 29.5012 15.1086 30.2049C15.0936 30.3222 15.0644 30.4372 15.0217 30.5474C15.0315 31.2381 15.1276 31.925 15.308 32.5918C15.4 32.4487 15.4664 32.3618 15.5226 32.2647C15.909 31.628 16.4461 31.0961 17.0866 30.716L17.1888 30.6547C17.3488 30.3457 17.4691 30.0177 17.5466 29.6785C17.6187 29.4076 17.6007 29.1206 17.4955 28.8607C17.4143 28.6551 17.3577 28.4407 17.3268 28.2218C17.2678 27.8873 17.2915 27.5433 17.3957 27.22C17.4999 26.8966 17.6816 26.6036 17.9248 26.3665C18.2476 26.0659 18.589 25.7859 18.9471 25.5283C19.2844 25.2727 19.6319 25.0172 19.9693 24.7923C20.0175 24.7584 20.0688 24.7293 20.1226 24.7054C20.1632 24.6919 20.2063 24.688 20.2487 24.694C20.291 24.7001 20.3313 24.7158 20.3665 24.7401C20.4017 24.7644 20.4308 24.7965 20.4514 24.834C20.4721 24.8714 20.4837 24.9131 20.4855 24.9558C20.501 25.1088 20.501 25.2629 20.4855 25.4158C20.3706 26.3412 20.1174 27.244 19.7342 28.094C19.5378 28.6164 19.1797 29.0623 18.7119 29.3667C18.6292 29.4259 18.5401 29.4757 18.4462 29.5149C18.3564 29.5426 18.2761 29.5944 18.2138 29.6647C18.1516 29.7351 18.11 29.8212 18.0935 29.9136C18.0526 30.0414 18.0117 30.164 17.9606 30.2867C18.4286 30.0851 18.9223 29.9492 19.4275 29.8829C19.586 29.8829 19.7393 29.8523 19.8977 29.8472C20.2562 29.7913 20.5923 29.6374 20.8688 29.4025C21.4844 28.9135 22.1747 28.527 22.9133 28.2576C23.2406 28.1362 23.5864 28.0722 23.9355 28.0685C24.1304 28.0676 24.323 28.1097 24.4997 28.1919C24.6764 28.2741 24.8328 28.3942 24.9577 28.5438C25.0191 28.6103 25.1111 28.6972 25.1162 28.7789C25.1162 29.0958 25.3462 29.2083 25.5864 29.3412C25.7243 29.4041 25.8472 29.4956 25.9469 29.6097C26.0467 29.7238 26.121 29.8578 26.165 30.0028C26.209 30.1479 26.2217 30.3006 26.2021 30.4509C26.1825 30.6012 26.1312 30.7456 26.0515 30.8745C25.9041 31.1554 25.8453 31.4744 25.8828 31.7894C25.9851 32.7196 25.5762 33.1745 24.6255 33.2256C24.5779 33.2224 24.53 33.2224 24.4824 33.2256C24.4824 33.338 24.4824 33.4403 24.4824 33.5476C24.4753 33.733 24.4026 33.9099 24.2771 34.0466C24.1516 34.1833 23.9816 34.2709 23.7975 34.2938C23.5573 34.3552 23.3273 34.4369 23.0973 34.5187C22.9197 34.5928 22.7238 34.6109 22.5357 34.5708C22.3476 34.5306 22.1762 34.434 22.0444 34.2938C21.801 34.0253 21.5884 33.7305 21.4106 33.4147C21.0579 32.8116 20.7513 32.1829 20.3884 31.5849C20.1891 31.2527 19.9182 30.9665 19.6933 30.6496C19.644 30.5777 19.5771 30.5197 19.4991 30.4809C18.8269 30.5401 18.1764 30.7489 17.5954 31.092C17.0143 31.4352 16.5174 31.9039 16.1411 32.464C13.7593 35.8987 18.1139 38.2805 20.7922 38.8938C25.5148 39.8752 30.5595 37.4627 34.8171 34.6414C36.3759 31.2987 38.2159 27.772 38.8344 26.7652C41.0782 23.1312 44.2062 18.7305 46.8742 16.1698C49.8591 13.3025 52.9513 12.822 51.2493 17.5345C50.0277 20.8976 46.0666 26.6272 37.9246 33.0876C36.3913 35.2445 35.2873 37.5445 34.1219 39.7014C35.7677 37.9994 37.8122 35.8987 39.3762 34.5034C43.322 31.038 44.0068 34.3654 42.3866 38.0812C41.8067 39.3208 41.0086 40.4461 40.0304 41.4034L39.8311 41.6027C43.0408 39.7832 47.922 35.8834 49.5064 34.12L49.5422 34.0894L50.2577 32.7605L50.6717 32.05C51.4895 30.5729 52.3482 32.372 51.7451 33.4096C50.6257 35.5818 49.1231 38.582 47.4211 41.7612C50.0277 39.7627 52.7724 37.4934 55.4455 35.2905C56.0979 34.8026 56.6615 34.2061 57.1117 33.5272C57.1682 33.4321 57.2178 33.333 57.2599 33.2307C57.3008 33.1336 57.3315 33.0314 57.3673 32.9292C57.2792 32.9101 57.1921 32.8862 57.1066 32.8576C56.7878 32.751 56.5047 32.5582 56.2888 32.3005C56.0615 32.0473 55.9046 31.7389 55.834 31.406C55.8045 31.2371 55.7874 31.0663 55.7828 30.8949C55.7828 30.7109 55.7573 30.5269 55.7471 30.3429C55.7368 30.1589 55.7471 29.9647 55.7062 29.7756C55.6841 29.6061 55.6721 29.4354 55.6704 29.2645C55.6689 29.189 55.6842 29.114 55.7151 29.0451C55.746 28.9761 55.7919 28.9149 55.8493 28.8658C55.9145 28.8369 55.985 28.822 56.0563 28.822C56.1276 28.822 56.1981 28.8369 56.2633 28.8658C56.5745 28.9813 56.8495 29.177 57.0606 29.4332C57.2966 29.7103 57.4912 30.0202 57.6382 30.3532C57.9251 30.9703 58.0194 31.6596 57.9091 32.3312C57.8446 32.6788 57.7523 33.0206 57.6331 33.3534C57.7411 33.2955 57.8325 33.2111 57.8988 33.108C58.338 32.6258 58.722 32.0961 59.0437 31.5287C59.2621 31.0867 59.4137 30.6148 59.4935 30.1283C59.5804 29.6172 59.6059 29.106 59.6571 28.5592C59.6571 28.4978 59.6571 28.4314 59.6571 28.37C59.6698 28.3215 59.6698 28.2704 59.6571 28.2218C59.641 28.1989 59.6206 28.1793 59.5969 28.1644C59.5732 28.1495 59.5467 28.1395 59.5191 28.1349C59.4612 28.1149 59.4062 28.0875 59.3555 28.0532C59.2587 28.0011 59.1746 27.9283 59.1092 27.8399C59.0438 27.7515 58.9988 27.6498 58.9773 27.542C58.9682 27.3585 59.0291 27.1784 59.1477 27.038C59.2663 26.8976 59.4337 26.8074 59.6162 26.7856C59.8074 26.76 60.0016 26.7996 60.1676 26.8978C60.3335 26.9961 60.4616 27.1474 60.5311 27.3274C60.5698 27.4391 60.5888 27.5567 60.5873 27.6749C60.5914 27.7861 60.5591 27.8956 60.4953 27.9867C60.405 28.074 60.2943 28.1373 60.1733 28.1707C60.1222 28.1707 60.0608 28.2014 60.0353 28.2525C60.0227 28.3063 60.0227 28.3623 60.0353 28.416C60.0303 28.6777 60.0098 28.9388 59.974 29.198C59.9433 29.4689 59.9126 29.7092 59.8717 30.0056C59.8308 30.302 59.7848 30.5167 59.7388 30.8029V30.8643H59.79C59.836 30.8234 59.8717 30.7723 59.9126 30.7314C59.9535 30.6905 60.0864 30.5269 60.1784 30.4196C60.3602 30.2178 60.5308 30.0062 60.6895 29.7858C60.838 29.5625 60.9728 29.3304 61.0933 29.0907C61.2159 28.8607 61.3233 28.646 61.4357 28.4212C61.4484 28.376 61.4484 28.3283 61.4357 28.2832C61.3846 28.0225 61.3642 27.772 61.2875 27.5012C61.1546 27.0463 60.9808 26.6067 60.8377 26.1518C60.761 25.918 60.7113 25.6762 60.6895 25.4312C60.6739 25.2985 60.7006 25.1644 60.7657 25.0478C60.8309 24.9312 60.9312 24.8382 61.0524 24.782C61.2048 24.7118 61.3532 24.6334 61.4971 24.5469C61.5991 24.4763 61.7223 24.4429 61.846 24.4522C61.9697 24.4615 62.0865 24.513 62.1768 24.598L62.3404 24.7463L62.4171 24.69C62.4954 24.5866 62.5976 24.5036 62.715 24.4483C62.8324 24.393 62.9615 24.367 63.0911 24.3725C63.2208 24.3781 63.3472 24.415 63.4594 24.4801C63.5717 24.5451 63.6665 24.6365 63.7357 24.7463C63.8787 24.9112 64.0672 25.0304 64.2775 25.0887C64.3781 25.1097 64.4731 25.1515 64.5565 25.2114C64.6399 25.2713 64.7099 25.348 64.7619 25.4366C64.8139 25.5252 64.8467 25.6237 64.8584 25.7257C64.87 25.8278 64.8602 25.9311 64.8295 26.0292C64.7886 26.2132 64.7477 26.3716 64.8959 26.5403C64.9307 26.5969 64.9468 26.6631 64.9419 26.7294C64.9595 26.8614 64.9471 26.9958 64.9055 27.1223C64.8639 27.2489 64.7942 27.3644 64.7017 27.4603C64.5363 27.624 64.3445 27.7588 64.1344 27.8589C63.6513 28.0945 63.1337 28.2515 62.6011 28.324C62.284 28.36 61.9885 28.5023 61.7628 28.7278C61.6063 28.9378 61.4758 29.1661 61.3744 29.4076C61.2415 29.6427 61.1035 29.8727 60.9451 30.0976C60.7866 30.3225 60.6231 30.5269 60.4339 30.7467C60.5254 30.7248 60.611 30.6829 60.6844 30.624C61.0774 30.3578 61.4872 30.1171 61.9111 29.9034C62.0133 29.8523 62.1155 29.8063 62.2177 29.7654C62.3097 29.7296 62.4273 29.7194 62.4886 29.6376C62.5257 29.5578 62.5415 29.4698 62.5346 29.382C62.5463 29.2808 62.5832 29.1842 62.6419 29.1009C62.7552 28.9668 62.9125 28.8772 63.0857 28.8482C63.2588 28.8192 63.4367 28.8526 63.5875 28.9425C63.7393 29.0251 63.8635 29.1505 63.9444 29.3033C64.0253 29.456 64.0594 29.6292 64.0424 29.8012C64.0009 29.9706 63.8964 30.1177 63.7501 30.2127C63.6039 30.3077 63.4269 30.3433 63.2553 30.3123C63.1526 30.307 63.0527 30.2772 62.9639 30.2254C62.8849 30.1647 62.7992 30.1132 62.7084 30.072C62.6269 30.0597 62.5438 30.0637 62.464 30.0839C62.3841 30.1041 62.3091 30.14 62.2433 30.1896C62.0337 30.2918 61.8191 30.3787 61.6146 30.4809C61.4102 30.5832 61.2057 30.7007 61.0064 30.8183C60.609 31.0487 60.2281 31.3066 59.8666 31.59C59.4988 31.8803 59.1568 32.2018 58.8444 32.5509C58.5275 32.9036 58.2719 33.2563 57.9806 33.6192C58.0742 33.6303 58.169 33.618 58.2566 33.5834C58.3601 33.5216 58.4518 33.442 58.5275 33.3483C58.6246 33.2614 58.7166 33.1796 58.8188 33.1029C59.0175 32.9435 59.2295 32.8016 59.4526 32.6787C59.8768 32.4544 60.334 32.2992 60.8071 32.2187C61.2489 32.1292 61.7043 32.1292 62.1462 32.2187C62.3741 32.263 62.5922 32.3479 62.7902 32.4692C62.8804 32.5129 62.9584 32.5782 63.0172 32.6594C63.0761 32.7405 63.114 32.8349 63.1275 32.9343C63.1275 33.1285 62.9486 33.246 62.7953 33.3227L62.09 33.6652C61.6548 33.9082 61.202 34.1183 60.7355 34.2938C60.3215 34.4489 59.8761 34.5016 59.4373 34.4472C59.2113 34.4074 58.9957 34.3222 58.8035 34.1967C58.7092 34.1258 58.6082 34.0642 58.5019 34.0127C58.4021 33.9813 58.2951 33.9813 58.1953 34.0127C57.4337 34.1712 56.4626 35.1678 55.8493 35.7045H56.1508C56.2593 35.7198 56.3694 35.7198 56.478 35.7045C56.5947 35.6652 56.7062 35.612 56.8102 35.546L57.1628 35.3774C57.4006 35.2762 57.6447 35.1909 57.8937 35.1218C58.3571 34.9892 58.8378 34.9271 59.3197 34.9378C59.5631 34.9481 59.8046 34.9841 60.0404 35.0452C60.2845 35.122 60.5235 35.2142 60.756 35.3212C60.9974 35.4219 61.2328 35.5362 61.4613 35.6636C61.5764 35.7273 61.6859 35.8009 61.7884 35.8834C61.8316 35.912 61.8688 35.9488 61.8977 35.9918C61.9266 36.0348 61.9468 36.083 61.9571 36.1338C61.9571 36.3792 61.6095 36.4252 61.4459 36.4609L60.6691 36.6552C60.158 36.788 59.6468 36.926 59.1357 37.0232C58.8974 37.075 58.6538 37.099 58.4099 37.0947C58.173 37.0823 57.9406 37.0251 57.7251 36.926C57.4941 36.8159 57.2846 36.6653 57.1066 36.4814C57.0215 36.3877 56.931 36.299 56.8357 36.2156C56.7513 36.1476 56.6475 36.1083 56.5393 36.1032C56.4831 36.1032 56.4217 36.1032 56.3655 36.1032C56.3093 36.1032 56.2428 36.1032 56.1815 36.1032C56.059 36.0955 55.9361 36.0955 55.8135 36.1032C55.59 36.1144 55.3687 36.1522 55.1542 36.2156C52.3022 38.5514 49.532 40.8463 46.8588 42.9214C43.3373 49.5147 39.1922 56.7214 36.3044 59.558C33.7131 62.1954 30.9633 62.6247 32.3228 58.362C33.3451 55.2187 36.7491 50.0054 43.8279 44.0509C45.0648 42.1854 46.1944 40.1972 47.3035 38.1783L48.7397 35.592C46.6544 37.4678 42.8313 40.514 40.0508 42.0883C38.8651 42.7578 36.4731 44.1327 35.1646 44.0509C34.3111 43.9896 33.7437 43.4529 33.6006 42.3745C33.5891 42.2803 33.6155 42.1854 33.6739 42.1106C33.7324 42.0358 33.8182 41.9873 33.9124 41.9758C34.0066 41.9643 34.1015 41.9907 34.1763 42.0491C34.2511 42.1076 34.2995 42.1934 34.3111 42.2876C34.3673 43.5092 35.1339 43.6778 35.8751 43.1974C38.3182 41.6334 40.1071 38.5974 41.4973 36.0418C43.3424 32.6583 41.6404 33.2256 39.9639 34.7334C38.0319 36.4354 35.1033 39.4203 33.202 41.3778C33.0026 41.7152 32.8033 41.6589 32.6602 41.434C32.2615 40.8667 32.7777 39.6145 33.0026 38.9603C33.3655 37.9943 33.8715 36.8187 34.4337 35.5818L34.3877 35.5563ZM24.4875 28.9425C24.3679 28.8264 24.2263 28.7354 24.071 28.6748C23.9158 28.6142 23.75 28.5852 23.5834 28.5895C23.4168 28.5937 23.2527 28.6312 23.1008 28.6998C22.9488 28.7683 22.8121 28.8664 22.6986 28.9885L24.4875 28.9425ZM20.9097 31.1863L20.8637 31.2374C21.2573 31.9734 21.6508 32.7145 22.0495 33.4454C22.1338 33.5898 22.235 33.7237 22.3511 33.844C22.4226 33.9399 22.528 34.0048 22.6457 34.0257C22.7634 34.0466 22.8847 34.0218 22.9848 33.9565C23.1201 33.8921 23.2625 33.8441 23.4091 33.8134C23.9202 33.7214 23.9202 33.66 23.7822 33.1847C23.726 32.9956 23.5982 32.9547 23.4704 32.8883C22.7943 32.5539 22.1582 32.1441 21.5742 31.6667C21.3612 31.4951 21.1394 31.3347 20.9097 31.1863ZM21.38 30.0056H21.5384C22.3847 30.0447 23.2252 30.1662 24.0479 30.3685C24.1301 30.3845 24.2106 30.4085 24.2882 30.44C24.3213 30.4505 24.352 30.4674 24.3784 30.4898C24.4049 30.5123 24.4267 30.5397 24.4424 30.5707C24.4581 30.6016 24.4674 30.6354 24.4699 30.67C24.4724 30.7046 24.468 30.7394 24.4568 30.7723C24.4502 30.803 24.4375 30.8322 24.4194 30.8579C24.4013 30.8837 24.3783 30.9056 24.3516 30.9223C24.3249 30.939 24.2951 30.9501 24.264 30.9551C24.2329 30.96 24.2012 30.9587 24.1706 30.9512L23.8844 30.8949L22.8264 30.716C22.7124 30.7081 22.598 30.7081 22.4839 30.716C22.806 30.9154 23.0564 31.0636 23.2966 31.2272C23.4042 31.2923 23.4952 31.3815 23.5624 31.4878C23.5866 31.5335 23.5992 31.5844 23.5992 31.636C23.5992 31.6877 23.5866 31.7386 23.5624 31.7843C23.5215 31.8156 23.4739 31.837 23.4234 31.8467C23.3728 31.8565 23.3207 31.8543 23.2711 31.8405C23.1562 31.7921 23.0494 31.7267 22.9542 31.6463C22.6161 31.4058 22.2417 31.2211 21.8451 31.0994C21.8451 31.1505 21.8451 31.1863 21.8757 31.2016C22.4993 31.74 23.2006 32.1812 23.956 32.51C24.1465 32.5952 24.3508 32.6454 24.5591 32.6583C25.0702 32.7043 25.3615 32.4538 25.3002 31.9274C25.2287 31.4646 25.3094 30.991 25.5302 30.578C25.5694 30.5156 25.5946 30.4455 25.6042 30.3724C25.6138 30.2993 25.6074 30.225 25.5856 30.1546C25.5637 30.0842 25.5269 30.0194 25.4776 29.9645C25.4284 29.9097 25.3678 29.8662 25.3002 29.8369C25.0667 29.7134 24.8147 29.6288 24.5539 29.5865C23.4824 29.4231 22.3864 29.5759 21.4004 30.026L21.38 30.0056ZM32.742 58.4438C31.3773 62.4867 33.2939 60.9432 34.9959 58.5512C37.9195 54.3754 42.4582 46.2845 43.0868 45.2878C36.7848 50.7874 33.708 55.51 32.742 58.4438Z" fill="white"/>
<path fill-rule="evenodd" clip-rule="evenodd" d="M75.5374 45.2367H79.5241V45.9165H76.2223V48.0938H79.4832V48.7736H76.2223V51.5234H79.4832V52.2032H75.5221V45.2367H75.5374ZM67.5334 52.2083V45.2367H67.6816L72.3174 50.5676V45.2367H73.0176V52.2083H72.8592L68.2592 46.9234V52.2083H67.5334ZM59.5499 52.2083V45.2367H59.6981L64.3339 50.5676V45.2367H65.0341V52.2083H64.8756L60.2756 46.9234V52.2083H59.5499ZM54.3416 46.6985L53.1456 49.2541H55.5376L54.3416 46.6985ZM54.4285 45.2367L57.6792 52.2083H56.933L55.8443 49.9134H52.8236L51.7401 52.2083H50.9632L54.2445 45.2367H54.4285ZM48.3821 45.2367H49.0823V49.9389C49.1121 50.4559 49.0551 50.9742 48.9136 51.4723C48.8025 51.7511 48.6056 51.9873 48.3514 52.1469C48.066 52.3225 47.7357 52.4113 47.4007 52.4025C47.1152 52.4016 46.8324 52.3461 46.5676 52.2389C46.2359 52.0954 45.9289 51.9005 45.6579 51.6614L46.0259 51.1094C46.3114 51.3095 46.6162 51.4807 46.9356 51.6205C47.0814 51.6878 47.2401 51.7227 47.4007 51.7227C47.5963 51.7254 47.787 51.6624 47.9425 51.5438C48.1065 51.428 48.2271 51.2607 48.285 51.0685C48.3683 50.6895 48.401 50.301 48.3821 49.9134V45.2367ZM30.3961 46.6985L29.2001 49.2541H31.5921L30.3961 46.6985ZM30.483 45.2367L33.7336 52.2083H32.9874L31.8987 49.9134H28.8781L27.7996 52.2083H27.0227L30.3092 45.2367H30.483ZM22.3461 45.2367H23.0667V51.5285H25.7552V52.2083H22.3461V45.2367ZM17.0561 45.2367H17.7563V51.5285H20.4447V52.2083H17.0561V45.2367ZM11.0556 45.2367H15.0474V45.9165H11.7559V48.0938H15.0167V48.7736H11.7559V51.5234H15.0167V52.2032H11.0556V45.2367ZM5.36697 48.8503V51.5285H6.23586C6.61525 51.5471 6.9948 51.4952 7.35519 51.3752C7.58758 51.2798 7.78669 51.118 7.92764 50.9101C8.06714 50.707 8.14197 50.4664 8.1423 50.2201C8.14644 49.9211 8.03892 49.6313 7.84075 49.4074C7.61882 49.1667 7.32778 49.0006 7.00764 48.9321C6.59737 48.8637 6.18132 48.8363 5.76564 48.8503H5.36697ZM5.36697 45.9165V48.1501H5.76564C6.12833 48.1661 6.49114 48.1212 6.83897 48.0172C7.05899 47.9324 7.24797 47.7827 7.38075 47.5878C7.5128 47.3973 7.58245 47.1705 7.58008 46.9387C7.58592 46.7964 7.559 46.6547 7.5014 46.5244C7.4438 46.3941 7.35706 46.2788 7.24786 46.1874C6.93692 45.9865 6.56941 45.8915 6.20008 45.9165H5.36697ZM4.66675 45.2367H6.04164C6.47499 45.2161 6.90802 45.2839 7.3143 45.4361C7.61507 45.5585 7.86921 45.7732 8.04008 46.0494C8.2128 46.3174 8.3034 46.6301 8.30075 46.9489C8.304 47.2476 8.22439 47.5413 8.07075 47.7974C7.913 48.061 7.68461 48.2753 7.41142 48.4158C7.71432 48.5061 7.99713 48.6536 8.24453 48.8503C8.43906 49.013 8.59453 49.2174 8.69941 49.4483C8.80883 49.689 8.86464 49.9506 8.86297 50.2149C8.86737 50.4817 8.81496 50.7464 8.70921 50.9914C8.60347 51.2364 8.44681 51.456 8.24964 51.6358C7.79952 52.0398 7.20787 52.2492 6.60386 52.2185H4.66675V45.2367Z" fill="white"/>
<path opacity="0.5" d="M46.1065 61.8667V57.5063H47.3942C47.8614 57.5063 48.2158 57.6031 48.4574 57.7967C48.699 57.9884 48.8197 58.2719 48.8197 58.6473C48.8197 58.8729 48.7579 59.0695 48.6341 59.2372C48.5123 59.403 48.3446 59.5217 48.1309 59.5936C48.3845 59.6495 48.5881 59.7743 48.7419 59.968C48.8976 60.1616 48.9755 60.3852 48.9755 60.6388C48.9755 61.0241 48.8507 61.3256 48.6011 61.5432C48.3536 61.7589 48.0082 61.8667 47.5649 61.8667H46.1065ZM46.4748 59.7703V61.5552H47.5799C47.8954 61.5552 48.1449 61.4753 48.3286 61.3156C48.5143 61.1539 48.6071 60.9303 48.6071 60.6448C48.6071 60.3753 48.5183 60.1626 48.3406 60.0069C48.1649 59.8492 47.9213 59.7703 47.6098 59.7703H46.4748ZM46.4748 59.4619H47.4811C47.7885 59.4559 48.0261 59.384 48.1938 59.2462C48.3635 59.1065 48.4484 58.9038 48.4484 58.6383C48.4484 58.3588 48.3605 58.1531 48.1848 58.0214C48.0111 57.8876 47.7476 57.8207 47.3942 57.8207H46.4748V59.4619ZM51.0389 61.9266C50.7634 61.9266 50.5138 61.8587 50.2902 61.7229C50.0686 61.5872 49.8959 61.3985 49.7721 61.1569C49.6483 60.9133 49.5864 60.6408 49.5864 60.3393V60.2105C49.5864 59.8991 49.6463 59.6186 49.7661 59.369C49.8879 59.1194 50.0566 58.9238 50.2722 58.782C50.4878 58.6383 50.7214 58.5664 50.973 58.5664C51.3663 58.5664 51.6778 58.7012 51.9074 58.9707C52.139 59.2382 52.2548 59.6046 52.2548 60.0698V60.2704H49.9428V60.3393C49.9428 60.7067 50.0476 61.0132 50.2572 61.2587C50.4689 61.5023 50.7344 61.6241 51.0539 61.6241C51.2455 61.6241 51.4142 61.5892 51.56 61.5193C51.7077 61.4494 51.8415 61.3376 51.9613 61.1839L52.1859 61.3546C51.9223 61.7359 51.54 61.9266 51.0389 61.9266ZM50.973 58.8719C50.7035 58.8719 50.4759 58.9707 50.2902 59.1684C50.1065 59.366 49.9947 59.6316 49.9548 59.965H51.8984V59.926C51.8884 59.6146 51.7996 59.361 51.6319 59.1654C51.4641 58.9697 51.2445 58.8719 50.973 58.8719ZM54.998 61.8667C54.9621 61.7648 54.9391 61.6141 54.9291 61.4145C54.8033 61.5782 54.6426 61.7049 54.447 61.7948C54.2533 61.8826 54.0477 61.9266 53.83 61.9266C53.5186 61.9266 53.266 61.8397 53.0723 61.666C52.8807 61.4923 52.7848 61.2727 52.7848 61.0072C52.7848 60.6917 52.9156 60.4421 53.1772 60.2585C53.4407 60.0748 53.8071 59.9829 54.2763 59.9829H54.9261V59.6146C54.9261 59.383 54.8542 59.2013 54.7105 59.0695C54.5687 58.9358 54.3611 58.8689 54.0876 58.8689C53.838 58.8689 53.6314 58.9328 53.4677 59.0605C53.3039 59.1883 53.2221 59.3421 53.2221 59.5217L52.8627 59.5188C52.8627 59.2612 52.9825 59.0386 53.2221 58.8509C53.4617 58.6612 53.7562 58.5664 54.1056 58.5664C54.4669 58.5664 54.7514 58.6573 54.9591 58.8389C55.1687 59.0186 55.2765 59.2702 55.2825 59.5936V61.127C55.2825 61.4404 55.3154 61.675 55.3813 61.8307V61.8667H54.998ZM53.872 61.6091C54.1115 61.6091 54.3252 61.5512 54.5128 61.4354C54.7025 61.3196 54.8403 61.1649 54.9261 60.9712V60.2585H54.2852C53.9279 60.2625 53.6483 60.3283 53.4467 60.4561C53.245 60.5819 53.1442 60.7556 53.1442 60.9772C53.1442 61.1589 53.2111 61.3096 53.3449 61.4294C53.4806 61.5492 53.6563 61.6091 53.872 61.6091ZM58.3252 61.4564C58.1096 61.7698 57.7652 61.9266 57.292 61.9266C56.9466 61.9266 56.6841 61.8267 56.5044 61.6271C56.3247 61.4254 56.2329 61.128 56.2289 60.7346V58.6263H56.5852V60.6897C56.5852 61.3066 56.8348 61.6151 57.3339 61.6151C57.853 61.6151 58.1815 61.4005 58.3192 60.9712V58.6263H58.6786V61.8667H58.3312L58.3252 61.4564ZM60.17 57.7967V58.6263H60.8408V58.9198H60.17V61.079C60.17 61.2587 60.2019 61.3925 60.2658 61.4803C60.3317 61.5682 60.4405 61.6121 60.5923 61.6121C60.6522 61.6121 60.749 61.6021 60.8828 61.5822L60.8977 61.8757C60.8039 61.9096 60.6761 61.9266 60.5144 61.9266C60.2688 61.9266 60.0901 61.8557 59.9783 61.7139C59.8665 61.5702 59.8106 61.3596 59.8106 61.082V58.9198H59.2147V58.6263H59.8106V57.7967H60.17ZM62.6108 61.3516L63.5571 58.6263H63.9434L62.5598 62.4177L62.488 62.5854C62.3103 62.9787 62.0358 63.1754 61.6644 63.1754C61.5786 63.1754 61.4867 63.1614 61.3889 63.1335L61.3859 62.837L61.5716 62.8549C61.7473 62.8549 61.889 62.811 61.9968 62.7232C62.1066 62.6373 62.1995 62.4886 62.2753 62.277L62.4341 61.8397L61.2122 58.6263H61.6045L62.6108 61.3516ZM67.9325 61.0431C67.9325 60.8654 67.8606 60.7227 67.7169 60.6148C67.5751 60.507 67.3605 60.4232 67.073 60.3633C66.7855 60.3014 66.5619 60.2315 66.4022 60.1536C66.2444 60.0738 66.1266 59.977 66.0488 59.8632C65.9729 59.7494 65.935 59.6116 65.935 59.4499C65.935 59.1943 66.0418 58.9837 66.2554 58.818C66.469 58.6503 66.7426 58.5664 67.076 58.5664C67.4374 58.5664 67.7269 58.6563 67.9445 58.8359C68.1641 59.0136 68.2739 59.2462 68.2739 59.5337H67.9145C67.9145 59.3441 67.8347 59.1863 67.675 59.0605C67.5172 58.9348 67.3176 58.8719 67.076 58.8719C66.8404 58.8719 66.6507 58.9248 66.507 59.0306C66.3652 59.1344 66.2944 59.2702 66.2944 59.4379C66.2944 59.5996 66.3532 59.7254 66.471 59.8152C66.5908 59.9031 66.8075 59.9839 67.1209 60.0578C67.4364 60.1317 67.672 60.2105 67.8277 60.2944C67.9854 60.3783 68.1022 60.4791 68.1781 60.5969C68.2539 60.7147 68.2919 60.8574 68.2919 61.0251C68.2919 61.2987 68.1811 61.5173 67.9595 61.681C67.7398 61.8447 67.4523 61.9266 67.097 61.9266C66.7196 61.9266 66.4131 61.8357 66.1776 61.654C65.944 61.4704 65.8272 61.2388 65.8272 60.9592H66.1865C66.2005 61.1689 66.2884 61.3326 66.4501 61.4504C66.6138 61.5662 66.8294 61.6241 67.097 61.6241C67.3465 61.6241 67.5482 61.5692 67.7019 61.4594C67.8556 61.3496 67.9325 61.2108 67.9325 61.0431ZM71.1459 61.8667C71.11 61.7648 71.087 61.6141 71.077 61.4145C70.9513 61.5782 70.7905 61.7049 70.5949 61.7948C70.4012 61.8826 70.1956 61.9266 69.9779 61.9266C69.6665 61.9266 69.4139 61.8397 69.2203 61.666C69.0286 61.4923 68.9328 61.2727 68.9328 61.0072C68.9328 60.6917 69.0635 60.4421 69.3251 60.2585C69.5886 60.0748 69.955 59.9829 70.4242 59.9829H71.074V59.6146C71.074 59.383 71.0022 59.2013 70.8584 59.0695C70.7167 58.9358 70.509 58.8689 70.2355 58.8689C69.9859 58.8689 69.7793 58.9328 69.6156 59.0605C69.4519 59.1883 69.37 59.3421 69.37 59.5217L69.0106 59.5188C69.0106 59.2612 69.1304 59.0386 69.37 58.8509C69.6096 58.6612 69.9041 58.5664 70.2535 58.5664C70.6148 58.5664 70.8993 58.6573 71.107 58.8389C71.3166 59.0186 71.4244 59.2702 71.4304 59.5936V61.127C71.4304 61.4404 71.4634 61.675 71.5292 61.8307V61.8667H71.1459ZM70.0199 61.6091C70.2595 61.6091 70.4731 61.5512 70.6608 61.4354C70.8504 61.3196 70.9882 61.1649 71.074 60.9712V60.2585H70.4332C70.0758 60.2625 69.7963 60.3283 69.5946 60.4561C69.393 60.5819 69.2921 60.7556 69.2921 60.9772C69.2921 61.1589 69.359 61.3096 69.4928 61.4294C69.6286 61.5492 69.8042 61.6091 70.0199 61.6091ZM72.7901 61.8667H72.4307V57.2667H72.7901V61.8667ZM73.5687 60.1986C73.5687 59.8871 73.6286 59.6066 73.7484 59.357C73.8702 59.1075 74.0409 58.9138 74.2605 58.776C74.4821 58.6363 74.7327 58.5664 75.0122 58.5664C75.4434 58.5664 75.7928 58.7181 76.0604 59.0216C76.3279 59.3231 76.4617 59.7234 76.4617 60.2225V60.2974C76.4617 60.6109 76.4008 60.8934 76.279 61.1449C76.1592 61.3945 75.9895 61.5872 75.7699 61.7229C75.5503 61.8587 75.2997 61.9266 75.0182 61.9266C74.5889 61.9266 74.2395 61.7758 73.97 61.4744C73.7025 61.1709 73.5687 60.7696 73.5687 60.2704V60.1986ZM73.9281 60.2974C73.9281 60.6847 74.0279 61.0032 74.2276 61.2527C74.4292 61.5003 74.6927 61.6241 75.0182 61.6241C75.3416 61.6241 75.6032 61.5003 75.8028 61.2527C76.0045 61.0032 76.1053 60.6747 76.1053 60.2674V60.1986C76.1053 59.951 76.0594 59.7244 75.9675 59.5188C75.8757 59.3131 75.7469 59.1544 75.5812 59.0426C75.4155 58.9288 75.2258 58.8719 75.0122 58.8719C74.6927 58.8719 74.4322 58.9977 74.2305 59.2492C74.0289 59.4988 73.9281 59.8262 73.9281 60.2315V60.2974ZM77.5458 58.6263L77.5578 59.1803C77.6796 58.9807 77.8313 58.829 78.013 58.7251C78.1947 58.6193 78.3953 58.5664 78.6149 58.5664C78.9623 58.5664 79.2209 58.6642 79.3906 58.8599C79.5603 59.0556 79.6461 59.349 79.6481 59.7404V61.8667H79.2917V59.7374C79.2898 59.4479 79.2279 59.2323 79.1061 59.0905C78.9863 58.9487 78.7936 58.8779 78.5281 58.8779C78.3065 58.8779 78.1098 58.9477 77.9381 59.0875C77.7684 59.2253 77.6426 59.4119 77.5608 59.6475V61.8667H77.2044V58.6263H77.5458Z" fill="white"/>
</svg>
