<svg width="14" height="14" viewBox="0 0 14 14" fill="none" xmlns="http://www.w3.org/2000/svg">
<path fill-rule="evenodd" clip-rule="evenodd" d="M9.9584 0.333344C10.3949 0.333344 10.8133 0.507623 11.1189 0.815625L13.1862 2.88289C13.494 3.19068 13.6669 3.60812 13.6669 4.0434C13.6669 4.47867 13.494 4.89612 13.1862 5.2039L5.6385 12.7492C5.17285 13.2863 4.51276 13.6164 3.75656 13.6682H0.333496V13.0016L0.335661 10.1915C0.392455 9.48857 0.719274 8.8349 1.21783 8.39562L8.79709 0.816429C9.10442 0.50723 9.5224 0.333344 9.9584 0.333344ZM3.70948 12.3366C4.06563 12.3113 4.39715 12.1456 4.66336 11.8411L9.70468 6.79977L7.20176 4.29676L2.1309 9.3664C1.8608 9.60529 1.6937 9.9395 1.66683 10.2452V12.3353L3.70948 12.3366ZM8.14468 3.35406L10.6475 5.85696L12.2434 4.26109C12.3011 4.20336 12.3335 4.12505 12.3335 4.0434C12.3335 3.96175 12.3011 3.88344 12.2434 3.8257L10.1742 1.75658C10.1172 1.69904 10.0395 1.66668 9.9584 1.66668C9.87734 1.66668 9.79964 1.69904 9.74255 1.75658L8.14468 3.35406Z" fill="#A7A7AB"/>
</svg>
