<svg width="18" height="18" viewBox="0 0 18 18" fill="none" xmlns="http://www.w3.org/2000/svg">
    <path d="M4.00003 7.99908C6.20506 7.99908 8.00006 6.20604 8.00006 4.00003C8.00006 1.79402 6.20506 0 4.00003 0C1.79501 0 0 1.79402 0 4.00003C0 6.20506 1.79501 7.99908 4.00003 7.99908ZM4.00003 2.00004C5.10405 2.00004 6.00007 2.89803 6.00007 4.00008C6.00007 5.10311 5.10405 5.99909 4.00003 5.99909C2.89602 5.99909 1.99999 5.10306 1.99999 4.00008C2.00004 2.89803 2.89602 2.00004 4.00003 2.00004Z" fill="white"/>
    <path d="M14 9.99974C11.795 9.99974 10 11.7938 10 13.9998C10 16.2058 11.795 17.9999 14 17.9999C16.2051 17.9999 18.0001 16.2058 18.0001 13.9998C18.0001 11.7938 16.2051 9.99974 14 9.99974ZM14 15.9998C12.896 15.9998 12 15.1028 12 13.9998C12 12.8978 12.896 11.9998 14 11.9998C15.1041 11.9998 16.0001 12.8978 16.0001 13.9998C16 15.1028 15.1041 15.9998 14 15.9998Z" fill="white"/>
    <path d="M16.2906 0.293644L0.291016 16.2932L1.70452 17.7067L17.7041 1.70714L16.2906 0.293644Z" fill="white"/>
</svg>
