<svg width="22" height="22" viewBox="0 0 22 22" fill="none" xmlns="http://www.w3.org/2000/svg">
<path opacity="0.5" fill-rule="evenodd" clip-rule="evenodd" d="M14.6019 8.86334C14.6019 12.0327 12.0327 14.6019 8.86334 14.6019C5.69402 14.6019 3.12478 12.0327 3.12478 8.86334C3.12478 5.69402 5.69402 3.12478 8.86334 3.12478C12.0327 3.12478 14.6019 5.69402 14.6019 8.86334ZM13.7763 15.6322C12.3969 16.6351 10.6992 17.2267 8.86334 17.2267C4.24439 17.2267 0.5 13.4823 0.5 8.86334C0.5 4.24439 4.24439 0.5 8.86334 0.5C13.4823 0.5 17.2267 4.24439 17.2267 8.86334C17.2267 10.6992 16.6351 12.3969 15.6323 13.7762L21.5 19.6439L19.644 21.5L13.7763 15.6322Z" fill="white"/>
</svg>
