<svg width="20" height="21" viewBox="0 0 20 21" fill="none" xmlns="http://www.w3.org/2000/svg">
    <path d="M5.09528 20.0069C4.80398 20.0057 4.5164 19.9413 4.25238 19.8183C3.98835 19.6952 3.75416 19.5163 3.56594 19.294C3.37773 19.0716 3.23997 18.8111 3.16217 18.5304C3.08436 18.2497 3.06837 17.9555 3.11528 17.668L3.88873 12.9024L0.569377 9.47461C0.31198 9.20961 0.13242 8.87893 0.0503421 8.51874C-0.0317361 8.15855 -0.0131716 7.78273 0.104005 7.43238C0.221182 7.08203 0.432457 6.77066 0.714717 6.53232C0.996977 6.29399 1.33935 6.13787 1.70438 6.08106L6.19998 5.39106L8.18093 1.15916C8.34688 0.818154 8.60538 0.530688 8.92691 0.329582C9.24844 0.128476 9.62004 0.0218353 9.99928 0.0218353C10.3785 0.0218353 10.7501 0.128476 11.0716 0.329582C11.3932 0.530688 11.6517 0.818154 11.8176 1.15916L13.792 5.38501L18.2941 6.08106C18.6591 6.13787 19.0015 6.29399 19.2837 6.53232C19.566 6.77066 19.7773 7.08203 19.8944 7.43238C20.0116 7.78273 20.0302 8.15855 19.9481 8.51874C19.866 8.87893 19.6865 9.20961 19.4291 9.47461L16.1131 12.8887L16.8837 17.6687C16.945 18.0411 16.9001 18.4232 16.7542 18.7713C16.6084 19.1194 16.3674 19.4194 16.0589 19.6368C15.7504 19.8543 15.387 19.9804 15.0101 20.0008C14.6332 20.0212 14.2582 19.935 13.9281 19.7522L10.0018 17.5722L6.07068 19.7522C5.77255 19.9188 5.4368 20.0064 5.09528 20.0069ZM9.99908 15.57C10.3396 15.5703 10.6744 15.6576 10.9717 15.8235L14.8985 18.0041L14.1348 13.2229C14.0853 12.9126 14.1086 12.5951 14.2028 12.2954C14.2971 11.9957 14.4597 11.7219 14.6778 11.4958L17.9941 8.08106L13.4946 7.36771C13.1679 7.31762 12.8587 7.1876 12.5944 6.98919C12.3301 6.79079 12.1189 6.53015 11.9796 6.23046L10.0059 2.00586H10.0054C10.0042 2.00232 10.0024 1.99902 10.0001 1.99611L8.01763 6.23146C7.87849 6.5309 7.66752 6.79131 7.40346 6.98954C7.1394 7.18778 6.83045 7.31768 6.50408 7.36771L2.00798 8.05771L5.31998 11.4952C5.5382 11.7213 5.70089 11.995 5.79521 12.2947C5.88952 12.5944 5.91288 12.912 5.86343 13.2223L5.08953 17.9889L9.02603 15.8239C9.32346 15.6577 9.6584 15.5703 9.99908 15.57Z" fill="white"/>
</svg>
