<svg width="16" height="16" viewBox="0 0 16 16" fill="none" xmlns="http://www.w3.org/2000/svg">
<g opacity="0.5">
<path d="M11.08 8C11.78 7.23 12.2 6.25 12.2 5.2C12.2 2.89 10.31 1 8 1C5.69 1 3.8 2.89 3.8 5.2C3.8 6.25 4.22 7.23 4.92 8C2.54 9.19 1 11.64 1 14.3C1 14.72 1.28 15 1.7 15H14.3C14.72 15 15 14.72 15 14.3C15 11.64 13.46 9.19 11.08 8ZM8 2.4C9.54 2.4 10.8 3.66 10.8 5.2C10.8 6.74 9.54 8 8 8C6.53 8 5.2 6.81 5.2 5.2C5.2 3.66 6.46 2.4 8 2.4ZM2.47 13.6C2.75 11.5 4.22 9.68 6.25 8.98C6.81 9.26 7.37 9.4 8 9.4C8.63 9.4 9.19 9.26 9.75 8.98C11.78 9.68 13.25 11.43 13.53 13.6H2.47Z" fill="#A7A7AB"/>
</g>
</svg>
